<?xml version="1.0" encoding="UTF-8"?>
<svg xmlns="http://www.w3.org/2000/svg" width="512" height="512" viewBox="0 0 512 512"><g fill="white"><path d="M88,112h64a8,8,0,0,0,8-8V72a8,8,0,0,0-8-8H88a8,8,0,0,0-8,8v32A8,8,0,0,0,88,112Zm40-32h16V96H128ZM96,80h16V96H96Z"/><path d="M228.88,89.66l-104-80a8.013,8.013,0,0,0-9.76,0l-104,80A7.991,7.991,0,0,0,8,96V232a8,8,0,0,0,8,8H224a8,8,0,0,0,8-8V96A7.991,7.991,0,0,0,228.88,89.66ZM168,224H72v-8h96Zm0-24H72v-8h96Zm0-24H72v-8h96ZM56,152v-8H184v8Zm160,72H184V168h8a8,8,0,0,0,8-8V136a8,8,0,0,0-8-8H48a8,8,0,0,0-8,8v24a8,8,0,0,0,8,8h8v56H24V99.94l96-73.85,96,73.85Z"/><path d="M500.88,89.66l-104-80a8.013,8.013,0,0,0-9.76,0l-104,80A7.991,7.991,0,0,0,280,96V232a8,8,0,0,0,8,8H496a8,8,0,0,0,8-8V96A7.991,7.991,0,0,0,500.88,89.66ZM440,224H344v-8h96Zm0-24H344v-8h96Zm0-24H344v-8h96ZM328,152v-8H456v8Zm160,72H456V168h8a8,8,0,0,0,8-8V136a8,8,0,0,0-8-8H320a8,8,0,0,0-8,8v24a8,8,0,0,0,8,8h8v56H296V99.94l96-73.85,96,73.85Z"/><path d="M352,72v32a8,8,0,0,0,8,8h64a8,8,0,0,0,8-8V72a8,8,0,0,0-8-8H360A8,8,0,0,0,352,72Zm48,8h16V96H400Zm-32,0h16V96H368Z"/><path d="M408,264H232a8,8,0,0,0-8,8v32H136a8,8,0,0,0-7.59,5.47l-32,96A8.074,8.074,0,0,0,96,408v64a8,8,0,0,0,8,8h24a8.258,8.258,0,0,0,1-.07,32,32,0,0,0,62,0,8.258,8.258,0,0,0,1,.07H320a8.258,8.258,0,0,0,1-.07,32,32,0,0,0,62,0,8.258,8.258,0,0,0,1,.07h24a8,8,0,0,0,8-8V272A8,8,0,0,0,408,264ZM133.77,344H192v32H123.1ZM112,409.3l5.77-17.3H200a8,8,0,0,0,8-8V336a8,8,0,0,0-8-8H139.1l2.67-8H224v96H112ZM160,488a16,16,0,1,1,16-16A16.021,16.021,0,0,1,160,488Zm192,0a16,16,0,1,1,16-16A16.021,16.021,0,0,1,352,488Zm48-24H384a8.258,8.258,0,0,0-1,.07,32,32,0,0,0-62,0,8.258,8.258,0,0,0-1-.07H192a8.258,8.258,0,0,0-1,.07,32,32,0,0,0-62,0,8.258,8.258,0,0,0-1-.07H112V432H400Zm0-48H240V280H400Z"/><path d="M72,392H40V256a8,8,0,0,0-16,0V400a8,8,0,0,0,8,8H72a8,8,0,0,0,0-16Z"/><path d="M480,248a8,8,0,0,0-8,8V392H440a8,8,0,0,0,0,16h40a8,8,0,0,0,8-8V256A8,8,0,0,0,480,248Z"/></g></svg>
