<svg width="640" height="600" xmlns="http://www.w3.org/2000/svg">

 <g>
  <title>Layer 1</title>
  <g stroke="null">
   <g stroke="null" fill="#000000" transform="translate(0 512) scale(0.1 -0.1)">
    <path fill="#ffffff" stroke="null" d="m1559.87763,4886.33499c-33.78325,-18.5263 -223.40538,-207.05865 -240.8419,-239.75212c-52.30955,-100.25998 45.77086,-198.34039 146.03084,-146.03084c16.34674,8.71826 66.47672,53.39934 111.1578,98.08041l80.64389,82.82346l1543.13182,0l1542.04204,0l515.46705,-515.46705l514.37727,-514.37727l0,-466.42685l0,-465.33707l-108.97824,0l-107.88845,0l-3.26935,425.01512l-3.26935,425.01512l-444.6312,443.54142l-443.54142,444.6312l-1460.30836,0l-1460.30836,0l-443.54142,-444.6312l-444.6312,-443.54142l-3.26935,-425.01512l-3.26935,-425.01512l-107.88845,0l-108.97824,0l0,466.42685l0,466.42685l82.82346,80.64389c44.68108,44.68108 89.36215,94.81107 98.08041,111.1578c51.21977,96.99063 -44.68108,198.34039 -140.58192,149.30018c-34.87304,-17.43652 -224.49517,-205.96887 -243.02147,-240.8419c-22.88543,-43.59129 -22.88543,-1150.81017 0,-1195.49125c25.06499,-47.95042 56.66868,-55.5789 246.29081,-55.5789l174.36518,0l0,-1547.49095c0,-1175.87516 3.26935,-1552.93986 13.07739,-1574.73551c29.42412,-64.29716 -126.41475,-59.93803 2340.8525,-59.93803c2467.26726,0 2311.42838,-4.35913 2340.8525,59.93803c9.80804,21.79565 13.07739,398.86034 13.07739,1574.73551l0,1547.49095l174.36518,0c189.62213,0 221.22582,7.62848 246.29081,55.5789c22.88543,45.77086 22.88543,1151.89995 0,1195.49125c-19.61608,35.96282 -1102.85975,1117.02692 -1136.643,1134.46343c-33.78325,17.43652 -3246.46164,16.34674 -3278.06533,-1.08978zm3391.4027,-1024.39542l384.69317,-384.69317l0,-378.15448l0,-379.24426l-2135.97342,0l-2135.97342,0l0,378.15448l0,379.24426l383.60339,383.60339l384.69317,384.69317l1367.67686,0l1367.67686,0l383.60339,-383.60339zm384.69317,-2842.15239l0,-1482.10401l-163.46735,0l-163.46735,0l0,1220.55624c0,921.95587 -3.26935,1226.00515 -13.07739,1247.8008c-28.33434,63.20738 77.37455,59.93803 -1794.87154,59.93803c-1312.09796,0 -1728.39482,-3.26935 -1750.19047,-13.07739c-63.20738,-28.33434 -59.93803,32.69347 -59.93803,-1294.66144l0,-1220.55624l-163.46735,0l-163.46735,0l0,1482.10401l0,1482.10401l2135.97342,0l2135.97342,0l0,-1482.10401zm-544.89118,621.17594l0,-207.05865l-1591.08224,0l-1591.08224,0l0,207.05865l0,207.05865l1591.08224,0l1591.08224,0l0,-207.05865zm0,-632.07377l0,-207.05865l-1591.08224,0l-1591.08224,0l0,207.05865l0,207.05865l1591.08224,0l1591.08224,0l0,-207.05865zm0,-632.07377l0,-207.05865l-1591.08224,0l-1591.08224,0l0,207.05865l0,207.05865l1591.08224,0l1591.08224,0l0,-207.05865zm0,-632.07377l0,-207.05865l-1591.08224,0l-1591.08224,0l0,207.05865l0,207.05865l1591.08224,0l1591.08224,0l0,-207.05865z"/>
    <path fill="#ffffff" stroke="null" d="m2274.77485,3848.86219c-30.51391,-17.43652 -54.48912,-56.66868 -55.5789,-91.54172c0,-33.78325 27.24456,-83.91324 51.21977,-95.90085c10.89782,-5.44891 86.09281,-11.98761 165.64692,-15.25695l147.12062,-5.44891l41.41173,-70.83585c22.88543,-39.23216 41.41173,-78.46433 41.41173,-87.18259c0,-8.71826 -18.5263,-47.95042 -41.41173,-87.18259l-41.41173,-70.83585l-147.12062,-5.44891c-79.55411,-3.26935 -154.74909,-9.80804 -165.64692,-15.25695c-22.88543,-10.89782 -51.21977,-62.11759 -51.21977,-93.72128c0,-35.96282 28.33434,-81.73368 59.93803,-95.90085c18.5263,-8.71826 92.6315,-13.07739 212.50756,-13.07739l185.263,0l31.60369,30.51391c18.5263,16.34674 59.93803,76.28477 92.6315,132.95345l58.84825,103.52932l340.0121,0l340.0121,0l58.84825,-103.52932c32.69347,-56.66868 74.1052,-116.60671 92.6315,-132.95345l31.60369,-30.51391l185.263,0c119.87606,0 193.98126,4.35913 212.50756,13.07739c31.60369,14.16717 59.93803,59.93803 59.93803,95.90085c0,31.60369 -28.33434,82.82346 -51.21977,93.72128c-10.89782,5.44891 -86.09281,11.98761 -165.64692,15.25695l-147.12062,5.44891l-41.41173,70.83585c-22.88543,39.23216 -41.41173,78.46433 -41.41173,87.18259c0,8.71826 18.5263,47.95042 41.41173,87.18259l41.41173,70.83585l147.12062,5.44891c79.55411,3.26935 154.74909,9.80804 165.64692,15.25695c22.88543,10.89782 51.21977,62.11759 51.21977,93.72128c0,35.96282 -28.33434,81.73368 -59.93803,95.90085c-18.5263,8.71826 -92.6315,13.07739 -212.50756,13.07739l-185.263,0l-31.60369,-29.42412c-18.5263,-17.43652 -59.93803,-77.37455 -92.6315,-134.04323l-58.84825,-103.52932l-340.0121,0l-340.0121,0l-58.84825,103.52932c-32.69347,56.66868 -74.1052,116.60671 -92.6315,134.04323l-31.60369,29.42412l-188.53235,0c-134.04323,-1.08978 -195.07104,-4.35913 -213.59734,-15.25695z"/>
    <path fill="#ffffff" stroke="null" d="m1010.62732,4339.26425c-94.81107,-52.30955 -54.48912,-202.69952 53.39934,-202.69952c55.5789,0 108.97824,53.39934 108.97824,107.88845c0,81.73368 -90.45194,135.13301 -162.37757,94.81107z"/>
   </g>
  </g>
 </g>
</svg>